<svg xmlns="http://www.w3.org/2000/svg" width="720" height="280" viewBox="0 0 720 280" role="img" aria-labelledby="title desc">
<title id="title">AeroHub — project illustration</title><desc id="desc">Flight school and pilot training management with course scheduling, flight logs and role-based dashboards.</desc>
<defs><linearGradient id="bg" x1="0" y1="0" x2="1" y2="1"><stop stop-color="#11162a"/><stop offset="1" stop-color="#142032"/></linearGradient><radialGradient id="glow"><stop stop-color="#b8a2f3" stop-opacity=".16"/><stop offset="1" stop-color="#b8a2f3" stop-opacity="0"/></radialGradient><clipPath id="frame"><rect width="720" height="280" rx="18"/></clipPath></defs>
<g clip-path="url(#frame)"><rect width="720" height="280" fill="url(#bg)"/><circle cx="575" cy="120" r="210" fill="url(#glow)"/><path d="M0 246C260 170 375 293 720 215" fill="none" stroke="#b8a2f3" stroke-opacity=".16"/><path d="M0 265C270 195 382 312 720 235" fill="none" stroke="#b8a2f3" stroke-opacity=".1"/>
<rect x="32" y="31" width="31" height="4" rx="2" fill="#b8a2f3"/><text x="75" y="37" fill="#98a6bf" font-family="Arial,Helvetica,sans-serif" font-size="12" letter-spacing="2">FEATURED PROJECT</text>
<text x="31" y="107" fill="#f3f4ff" font-family="Arial,Helvetica,sans-serif" font-size="30" font-weight="700" letter-spacing="-.6">AEROHUB</text>
<text x="32" y="145" fill="#b8a2f3" font-family="Arial,Helvetica,sans-serif" font-size="16">Flight training &amp; school workflows</text>
<text x="32" y="229" fill="#8290ab" font-family="Consolas,monospace" font-size="12" letter-spacing="1">ERFAN EBRAHIMI / SELECTED WORK</text><g transform="translate(462 48)"><circle cx="103" cy="91" r="86" fill="none" stroke="#b8a2f3" stroke-opacity=".25"/><circle cx="103" cy="91" r="68" fill="none" stroke="#b8a2f3" stroke-opacity=".2"/><path d="M104 23C110 23 111 35 111 43V78L181 121V132L111 106V143L137 159V167L104 158L71 167V159L97 143V106L27 132V121L97 78V43C97 35 98 23 104 23Z" fill="#b8a2f3" fill-opacity=".8"/><path d="M103 32V150" stroke="#e9ddff" stroke-opacity=".6"/><path d="M7 194H198" stroke="#b8a2f3" stroke-opacity=".35" stroke-dasharray="8 8"/></g></g></svg>
