<svg xmlns="http://www.w3.org/2000/svg" width="1200" height="170" viewBox="0 0 1200 170" role="img" aria-labelledby="title desc">
  <title id="title">Three areas of focus</title>
  <desc id="desc">Management software, expressive interfaces and AI-assisted development.</desc>
  <defs><linearGradient id="bg" x2="1" y2="1"><stop stop-color="#18192e"/><stop offset="1" stop-color="#0e1927"/></linearGradient></defs>
  <g font-family="Arial,Helvetica,sans-serif">
    <rect x="1" y="1" width="386" height="168" rx="18" fill="url(#bg)" stroke="#39465e"/>
    <rect x="407" y="1" width="386" height="168" rx="18" fill="url(#bg)" stroke="#39465e"/>
    <rect x="813" y="1" width="386" height="168" rx="18" fill="url(#bg)" stroke="#39465e"/>
    <g stroke="#83dbd8" fill="none" stroke-width="2"><rect x="28" y="26" width="32" height="28" rx="5"/><path d="M28 36h32M39 36v18"/></g>
    <g stroke="#bea1ff" fill="none" stroke-width="2"><path d="m444 29-12 12 12 12m24-24 12 12-12 12m-10-28-5 36"/></g>
    <g stroke="#efcd8e" fill="none" stroke-width="2"><path d="m859 24 5 14 14 5-14 5-5 14-5-14-14-5 14-5zM883 24v10m-5-5h10"/></g>
    <text x="28" y="88" fill="#eef3ff" font-size="25" font-weight="700">Management software</text>
    <text x="28" y="119" fill="#a6b5c9" font-size="17">Residential · Sports · Aviation</text>
    <text x="432" y="88" fill="#eef3ff" font-size="25" font-weight="700">Interfaces &amp; motion</text>
    <text x="432" y="119" fill="#a6b5c9" font-size="17">React · Blazor · Persian web UI</text>
    <text x="838" y="88" fill="#eef3ff" font-size="25" font-weight="700">AI-assisted development</text>
    <text x="838" y="119" fill="#a6b5c9" font-size="17">Turning ideas into applications</text>
    <path d="M28 146h90" stroke="#83dbd8" stroke-width="3"/><path d="M432 146h90" stroke="#bea1ff" stroke-width="3"/><path d="M838 146h90" stroke="#efcd8e" stroke-width="3"/>
  </g>
</svg>
