<svg xmlns="http://www.w3.org/2000/svg" width="720" height="280" viewBox="0 0 720 280" role="img" aria-labelledby="title desc">
<title id="title">Personal Portfolio — project illustration</title><desc id="desc">My Persian developer portfolio, featuring animated sections, skills and selected project showcases.</desc>
<defs><linearGradient id="bg" x1="0" y1="0" x2="1" y2="1"><stop stop-color="#11162a"/><stop offset="1" stop-color="#142032"/></linearGradient><radialGradient id="glow"><stop stop-color="#9dbfff" stop-opacity=".16"/><stop offset="1" stop-color="#9dbfff" stop-opacity="0"/></radialGradient><clipPath id="frame"><rect width="720" height="280" rx="18"/></clipPath></defs>
<g clip-path="url(#frame)"><rect width="720" height="280" fill="url(#bg)"/><circle cx="575" cy="120" r="210" fill="url(#glow)"/><path d="M0 246C260 170 375 293 720 215" fill="none" stroke="#9dbfff" stroke-opacity=".16"/><path d="M0 265C270 195 382 312 720 235" fill="none" stroke="#9dbfff" stroke-opacity=".1"/>
<rect x="32" y="31" width="31" height="4" rx="2" fill="#9dbfff"/><text x="75" y="37" fill="#98a6bf" font-family="Arial,Helvetica,sans-serif" font-size="12" letter-spacing="2">FEATURED PROJECT</text>
<text x="31" y="107" fill="#f3f4ff" font-family="Arial,Helvetica,sans-serif" font-size="27" font-weight="700" letter-spacing="-.6">PERSONAL PORTFOLIO</text>
<text x="32" y="145" fill="#9dbfff" font-family="Arial,Helvetica,sans-serif" font-size="16">My work, skills &amp; creative explorations</text>
<text x="32" y="229" fill="#8290ab" font-family="Consolas,monospace" font-size="12" letter-spacing="1">ERFAN EBRAHIMI / SELECTED WORK</text><g transform="translate(474 43)"><rect x="4" y="20" width="207" height="165" rx="13" fill="#17253d" stroke="#9dbfff" stroke-opacity=".6"/><path d="M4 47H211" stroke="#9dbfff" stroke-opacity=".35"/><circle cx="20" cy="33" r="3" fill="#c7a8ee"/><circle cx="31" cy="33" r="3" fill="#8fe0e2"/><circle cx="42" cy="33" r="3" fill="#e9c187"/><rect x="21" y="64" width="174" height="42" rx="6" fill="#43517b"/><text x="36" y="91" fill="#e7edff" font-family="Arial,Helvetica,sans-serif" font-size="16" font-weight="700">Erfan Ebrahimi.</text><rect x="21" y="119" width="80" height="45" rx="6" fill="#2a3655"/><rect x="114" y="119" width="81" height="45" rx="6" fill="#2a3655"/><path d="M32 133H87M32 145H70M125 133H181M125 145H159" stroke="#9dbfff" stroke-opacity=".6" stroke-width="3" stroke-linecap="round"/></g></g></svg>
